<?xml version="1.0" encoding="UTF-8"?>
<svg version="1.1" viewBox="0 0 2000 300" width="1000" height="1000" xmlns="http://www.w3.org/2000/svg">
<path transform="translate(1262,145)" d="m0 0h32l5 5 11 12 9 11 13 15 12 14 1-56 1-1h34v119h-33l-7-7-9-11-11-12-9-11-10-11-5-5v57h-34z" fill="#FEFEFE"/>
<path transform="translate(992,145)" d="m0 0h73l15 2 10 5 6 5 6 10 3 12-1 10-4 11-7 8-10 6 2 6 17 32 5 9v3h-41l-3-4-8-16-11-23-14-1v43l-1 1h-37zm38 27v22h29l5-4 2-4v-6l-4-6-4-2z" fill="#FEFEFE"/>
<path transform="translate(1593,143)" d="m0 0h14l15 2 11 4 9 5 10 9 7 11 4 12 1 7v25l-4 15-5 9-9 10-9 6-12 5-9 2-10 1h-13l-14-2-12-4-10-6-7-6-7-10-4-10-2-8-1-9v-13l2-13 4-12 7-11 9-8 14-7 11-3zm6 28-10 2-8 6-5 10-1 5v21l3 10 4 6 7 5 9 2 10-1 8-4 5-5 3-6 2-10v-14l-2-11-5-9-8-5z" fill="#FEFEFE"/>
<path transform="translate(735,143)" d="m0 0h16l17 3 14 7 7 6 5 10 2 8v4h-36l-3-7-6-4h-14l-6 3-2 4 2 4 9 4 32 8 10 4 9 7 6 9 2 8v10l-4 13-4 6-9 8-12 5-16 3h-17l-19-3-13-5-9-7-5-8-2-6-1-13h36l2 8 4 4 8 2h12l7-2 2-3-1-6-9-4-31-8-12-5-10-9-5-9-1-6v-12l4-11 7-8 9-6 12-4z" fill="#FDFDFD"/>
<path transform="translate(279,145)" d="m0 0h37l1 1 1 76 5 10 7 4 10 1 10-3 5-5 3-8 1-76h38v79l-3 13-6 10-8 8-14 7-12 3-8 1h-16l-17-3-12-5-8-6-8-9-4-9-2-9z" fill="#FEFEFE"/>
<path transform="translate(591,145)" d="m0 0h44l5 12 14 39 21 57 3 8v3h-40l-5-16-42-1-4 16-1 1h-38l1-6 21-57 20-55zm20 34-12 41 1 1h25l-2-10-9-30-1-2z" fill="#FEFEFE"/>
<path transform="translate(1159,145)" d="m0 0h44l4 9 23 63 16 44v3h-39l-3-7-2-6v-4l-42 1-5 15-1 1h-38l1-5 23-63 16-44zm20 34-11 38v4h25l-1-7-10-34z" fill="#FEFEFE"/>
<path transform="translate(1455,143)" d="m0 0h15l13 2 13 5 11 8 7 9 5 13 1 13-1 1h-35l-4-13-5-6-5-2-9-1-9 2-6 5-4 9-1 7v20l2 9 5 8 7 4 10 1 8-2 6-3 4-7 2-9h35l-1 14-5 13-7 9-10 7-10 4-17 3h-14l-14-2-14-5-11-8-8-10-5-13-2-8-1-9v-14l3-17 8-16 7-8 11-7 16-5z" fill="#FEFEFE"/>
<path transform="translate(473,143)" d="m0 0h14l13 2 11 4 10 6 7 7 7 14 2 8v9l-4 1h-31l-3-9-3-6-6-5-11-2-9 2-6 4-4 8-2 10v16l2 12 5 8 7 4 10 1 9-2 6-4 3-5 2-9 1-1h34v9l-3 12-5 9-7 8-12 7-15 4-8 1h-14l-14-2-11-4-10-6-9-9-7-14-3-12-1-17 2-17 4-12 6-10 9-9 16-8 9-2z" fill="#FEFEFE"/>
<path transform="translate(876,145)" d="m0 0h95l1 1v27h-58v21h49l1 1v25l-1 1h-49v43h-38z" fill="#FDFDFD"/>
<path transform="translate(163,145)" d="m0 0h34l4 1v88h61v30h-99z" fill="#FEFEFE"/>
<path transform="translate(1707,189)" d="m0 0 5 1 6 7 14 21 9 15 8 12 7 10 12 19 7 11v6l-12 12-4 2h-5l-7-7-16-26-11-16-6-9-14-22-8-13-2-5 1-4 7-8z" fill="#B593FC"/>
<path transform="translate(1794,115)" d="m0 0 7 1 7 10 10 16 8 11 11 18 9 14 10 15 6 10v8l-12 11-2 1h-7l-6-7-7-11-7-10-10-16-7-11-20-30-6-10v-6l7-8z" fill="#B593FC"/>
<path transform="translate(1832,112)" d="m0 0 5 2 7 10 11 17 13 20 8 13 1 7-4 5-10 8-4-1-7-8-16-25-7-10-12-19-2-3 1-5 11-9z" fill="#B593FC"/>
<path transform="translate(1690,225)" d="m0 0 5 3 5 6 13 21 18 27 6 11-2 4-7 6-5 3-5 1-5-4-4-6-7-10-3-5-10-16-4-6-8-13-2-4 1-7 8-7z" fill="#B593FC"/>
<path transform="translate(1795,179)" d="m0 0 5 2 7 11v5l-13 12-6 4-9 7-11 9-8 6-2 2-5 1-4-4-1-4h-2l-3-7 1-4 10-9 9-7 13-10 11-9z" fill="#B593FC"/>
<path transform="translate(1862,127)" d="m0 0 4 1 6 8 3 5-1 4-3 4-5 1-7-10-3-6 1-4z" fill="#B593FC"/>
<path transform="translate(1683,273)" d="m0 0h5l6 9 2 5-1 6-2 1h-6l-6-9-2-2v-6z" fill="#B593FC"/>
</svg>
